<?xml version="1.0" encoding="utf-8"?>
<!-- Generator: Adobe Illustrator 25.2.3, SVG Export Plug-In . SVG Version: 6.00 Build 0)  -->
<svg version="1.1" xmlns="http://www.w3.org/2000/svg" xmlns:xlink="http://www.w3.org/1999/xlink" x="0px" y="0px"
	 viewBox="0 0 4623.58 778.14" style="enable-background:new 0 0 4623.58 778.14;" xml:space="preserve">
<style type="text/css">
	.st0{fill-rule:evenodd;clip-rule:evenodd;fill:#CF0000;}
	.st1{fill-rule:evenodd;clip-rule:evenodd;}
	.st2{fill:#000;}
	.st3{font-family:'Arial-BoldMT';}
	.st4{font-size:123.1872px;}
	.st5{letter-spacing:2;}
</style>
<g id="Icon">
	<g>
		<path class="st0" d="M127.05,10.45c-27.48,5.11-11.14,40.96,70.71,38.15l273.07-2.28c11.25-0.16,32.4,1.66,38.02,7.35l82.34,45.98
			c30.95,20.55,11.27,17.79-10.32,18.49l-322.68,10.4c-35.83,1.15-41.18,5.41-69.33-14.19C84.53,41.69,15.03,10.34,0,122.02
			c1.29,111.85,2.59,223.7,3.88,335.55c1.82,24.76,45.99,28.88,46.73-2.46c-0.43-112.84,0.19-206.1-0.25-318.95
			c0.59-22.35,10.94-25.14,31.29-7.96l56.92,53.28c19.5,16.77,20.26,36.76,19.98,64.85l0.46,335.44
			c-1.4,23.36,5.72,54.53-23.36,25.39L75.01,543.1c-36.12-25.25-38.63,13.52-31.54,24.94c25.67,41.32,83.86,119.24,129.73,170.68
			c36.42,40.84,29.44,41.7,79.43,38.04l448.32-43.96c34.46-4.16,65.96-36.73,68.38-99.66l0.44-326.64
			c-4.65-68.21-73.6-65.11-69.41,0.11l2.55,298.07c-1.36,41.16-5.18,42.1-57.2,53.11c-40.11,8.49-236.12,33.84-346.56,27.66
			c-39.98-2.24-52.99-11.98-53-44.34l-0.13-376.55c-0.01-49.17,32.32-65.38,78.87-67.99l394.66-16.28
			C782.19,164.7,731.2,96,701.19,83.25C668.64,69.41,557.43,19.29,508.35,3.68c-12.8-4.07-15.22-3.87-28.38-3.49L127.05,10.45z"/>
		<polygon class="st1" points="311.79,447.2 311,388.71 513.48,376.84 418.74,296.26 505.77,293.19 614.17,392.02 482.99,526.73
			413.91,520.2 508.84,428.47 		"/>
	</g>
</g>
<g id="Text">
	<path class="st2" d="M1264.28,504.76l-42.85,172.23h-92.84l165.14-598.85h116.94l165.14,598.85h-92.84l-43.74-172.23H1264.28z
		 M1353.54,162.06h-1.79l-66.06,259.68h133.01L1353.54,162.06z"/>
	<path class="st2" d="M1851.78,535.61v-18.88h90.53c0.88,57.53,40.45,91.07,96.68,92.59c49.55,1.34,96.55-23.4,98.44-84.5
		c2.06-66.49-67.67-92.59-135.35-124.95c-67.67-33.26-145.78-72.14-145.78-162.92c0-105.17,94.81-168.77,193.24-168.77
		c81.74,0,172.26,58.43,172.26,150.12v11.69h-90.53c3.52-51.24-36.03-77.31-83.49-77.31c-47.46,0-91.4,18.88-91.4,76.41
		c0,44.05,34.28,67.42,68.55,83.6l52.73,25.17c80.86,39.55,150.29,82.7,150.29,186.07c0,106.97-90.53,169.89-188.96,169.89
		C1949.33,693.81,1851.78,636.28,1851.78,535.61z"/>
	<path class="st2" d="M2769.97,595.69h109.33v82.14h-299.95v-82.14h98.33V167.5h-91.4V85.36h274.21v82.14h-90.51V595.69z"/>
	<path class="st2" d="M3457.76,677.84h-92.3V167.5H3217.9V85.36h397v82.14h-157.14V677.84z"/>
	<path class="st2" d="M4018.05,322.48h232.26v82.5h-232.26v186.93h277.13v82.5h-367.74V85.36h357.19v76.52h-266.57V322.48z"/>
	<text transform="matrix(1 0 0 1 4440.791 669.7391)"><tspan x="0" y="0" class="st2 st3 st4 st5">T</tspan><tspan x="77.71" y="0" class="st2 st3 st4 st5">M</tspan></text>
</g>
</svg>
